<svg xmlns="http://www.w3.org/2000/svg" data-name="Layer 1" viewBox="0 0 50 50"><path d="M47,6a2.39,2.39,0,0,0-2.1-1,4.65,4.65,0,0,0-2.4.9l-.2.1c-.1,0-.2.1-.3.2-5.9,3.8-10.9,8.8-15.4,13.6a75.27,75.27,0,0,0-10.1,13.3,5.55,5.55,0,0,1-.6-.8c-1.9-2.6-4.9-6.6-8.9-9.1a4.28,4.28,0,0,0-1.8-.5,3.19,3.19,0,0,0-1.4.3,2.54,2.54,0,0,0-1.1,1.2c-.7,1.4.3,2.8,1,3.7a59.76,59.76,0,0,1,8.6,13.5,9.74,9.74,0,0,1,.5,1.1,4.89,4.89,0,0,0,4.1,2.6h.4a5.42,5.42,0,0,0,4-3.1.76.76,0,0,0,.2-.4l.1-.1c6.9-13.6,15-24.2,23.6-30.5.1,0,.1-.1.2-.1a15.41,15.41,0,0,0,1.4-1.3A3.19,3.19,0,0,0,47,6Z"></path></svg>