<svg xmlns="http://www.w3.org/2000/svg" x="0px" y="0px" viewBox="0 0 50 50" style="enable-background:new 0 0 50 50;" xml:space="preserve"><g>	<g>		<g>			<path d="M25.4,28.1c-7.3,0-13.5-6.1-13.5-13.5c0-7.3,6.1-13.5,13.5-13.5c7.3,0,13.5,6.1,13.5,13.5C38.8,22.1,32.7,28.1,25.4,28.1    z M25.4,3.1c-6.5,0-11.5,5.3-11.5,11.5S19,26.2,25.4,26.2c6.5,0,11.5-5.3,11.5-11.5S31.9,3.1,25.4,3.1z"></path>			<path d="M25.4,28.3c-7.6,0-13.8-6.2-13.8-13.8c0-7.6,6.2-13.8,13.8-13.8S39.2,7,39.2,14.6C39.1,22.2,32.9,28.3,25.4,28.3z     M25.4,1.3c-7.3,0-13.3,5.9-13.3,13.3c0,7.3,5.9,13.3,13.3,13.3c7.2,0,13.2-5.9,13.3-13.3C38.7,7.3,32.7,1.3,25.4,1.3z     M25.4,26.4c-6.4,0-11.8-5.4-11.8-11.9c0-6.5,5.3-11.8,11.8-11.8c6.5,0,11.8,5.3,11.8,11.9C37.2,21.2,31.9,26.4,25.4,26.4z     M25.4,3.3c-6.2,0-11.3,5.1-11.3,11.3c0,6.2,5.2,11.4,11.3,11.4c6.2,0,11.3-5.1,11.3-11.3C36.7,8.4,31.6,3.3,25.4,3.3z"></path>		</g>		<g>			<path d="M25.4,28.6c-7.7,0-14-6.3-14-14s6.3-14,14-14s14,6.3,14,14C39.3,22.3,33,28.6,25.4,28.6z M25.4,1.6c-7.2,0-13,5.9-13,13    s5.9,13,13,13c7.1,0,12.9-5.9,13-13C38.4,7.4,32.5,1.6,25.4,1.6z M25.4,26.7c-6.6,0-12-5.6-12-12c0-6.7,5.4-12,12-12    s12,5.4,12,12S32.1,26.7,25.4,26.7z M25.4,3.5c-6.1,0-11,5-11,11c0,6,5.1,11.1,11,11.1c6.1,0,11-5,11-11.1S31.5,3.5,25.4,3.5z"></path>			<path d="M25.4,28.8c-7.9,0-14.3-6.4-14.3-14.3S17.5,0.3,25.4,0.3s14.3,6.4,14.3,14.3C39.6,22.4,33.2,28.8,25.4,28.8z M25.4,0.8    c-7.6,0-13.8,6.2-13.8,13.8c0,7.6,6.2,13.8,13.8,13.8c7.5,0,13.7-6.2,13.8-13.8C39.2,7,33,0.8,25.4,0.8z M25.4,27.8    c-7.3,0-13.3-5.9-13.3-13.3c0-7.3,5.9-13.3,13.3-13.3c7.3,0,13.3,5.9,13.3,13.3C38.6,21.9,32.6,27.8,25.4,27.8z M25.4,1.8    c-7,0-12.8,5.7-12.8,12.8s5.7,12.8,12.8,12.8c6.9,0,12.7-5.7,12.8-12.8C38.2,7.5,32.4,1.8,25.4,1.8z M25.4,26.9    c-6.6,0-12.3-5.6-12.3-12.3c0-6.8,5.5-12.3,12.3-12.3s12.3,5.5,12.3,12.3S32.2,26.9,25.4,26.9z M25.4,2.9    c-6.5,0-11.8,5.3-11.8,11.8c0,6.4,5.4,11.8,11.8,11.8c6.5,0,11.8-5.3,11.8-11.8S31.9,2.9,25.4,2.9z M25.4,25.9    c-6.1,0-11.3-5.2-11.3-11.4c0-6.2,5.1-11.3,11.3-11.3s11.3,5.1,11.3,11.3C36.7,20.8,31.6,25.9,25.4,25.9z M25.4,3.8    c-5.9,0-10.8,4.8-10.8,10.8c0,5.9,4.9,10.9,10.8,10.9c5.9,0,10.8-4.9,10.8-10.9C36.2,8.6,31.3,3.8,25.4,3.8z"></path>		</g>	</g>	<g>		<g>			<path d="M48.2,48.8c-0.5,0-1-0.4-1-1c0-9.5-4.7-19.8-17.8-19.8h-8.3c-13,0-17.7,10.2-17.7,19.8c0,0.5-0.4,1-1,1s-1-0.4-1-1    c0-13.3,7.4-21.7,19.7-21.7h8.3c12.1,0,19.7,8.2,19.7,21.7C49.2,48.4,48.8,48.8,48.2,48.8z"></path>			<path d="M48.2,49.1c-0.6,0-1.2-0.5-1.2-1.2c0-9.4-4.6-19.5-17.5-19.5h-8.3C8.3,28.3,3.7,38.4,3.7,47.8c0,0.6-0.5,1.2-1.2,1.2    c-0.7,0-1.2-0.5-1.2-1.2c0-13.5,7.6-21.9,19.9-21.9h8.3c12.3,0,19.9,8.4,19.9,21.9c0.1,0.3,0,0.6-0.2,0.9    C48.9,48.9,48.6,49.1,48.2,49.1z M21.1,27.8h8.3c13.3,0,18,10.3,18,20c0,0.5,0.4,0.7,0.7,0.7c0.2,0,0.4-0.1,0.5-0.2    c0.1-0.1,0.1-0.3,0.1-0.5c0-13.2-7.4-21.4-19.4-21.4h-8.3c-12,0-19.4,8.2-19.4,21.4c0,0.5,0.3,0.7,0.7,0.7c0.5,0,0.7-0.4,0.7-0.7    C3.2,38.2,7.9,27.8,21.1,27.8z"></path>		</g>		<g>			<path d="M48.2,49.2c-0.8,0-1.5-0.7-1.5-1.5c0-9.3-4.6-19.3-17.3-19.3h-8.3C8.4,28.6,3.9,38.5,3.9,47.8c0,0.8-0.7,1.5-1.5,1.5    c-0.9,0-1.5-0.6-1.5-1.5C1,34.1,8.7,25.7,21,25.7h8.3c12.4,0,20.1,8.4,20.1,22.1c0.1,0.3,0,0.7-0.3,1    C49,49.1,48.6,49.2,48.2,49.2z M21.1,27.6h8.3C43,27.6,47.7,38,47.7,47.7c0,0.5,0.7,0.6,0.8,0.4c0.1-0.1,0.1-0.2,0.1-0.3    c0-13.1-7.3-21.3-19.2-21.3h-8.3C9.3,26.7,2,34.7,2,47.8c0,0.3,0.2,0.5,0.5,0.5S3,48,3,47.8C3,38,7.7,27.6,21.1,27.6z"></path>			<path d="M2.5,49.6c-1,0-1.7-0.7-1.7-1.7C0.7,34,8.5,25.4,21,25.4h8.3c12.5,0,20.3,8.6,20.3,22.4c0.1,0.4,0,0.8-0.3,1.2    c-0.1,0.3-0.5,0.5-1.1,0.5c-0.9,0-1.7-0.8-1.7-1.7c0-9.2-4.5-19-17-19h-8.3C8.6,28.8,4.2,38.7,4.2,47.8    C4.2,48.8,3.4,49.6,2.5,49.6z M21,25.9c-12.2,0-19.8,8.4-19.8,21.9c0,0.8,0.5,1.2,1.2,1.2c0.7,0,1.2-0.6,1.2-1.2    c0-9.4,4.6-19.5,17.4-19.6h8.3C42.4,28.2,47,38.3,47,47.7c0,0.7,0.6,1.2,1.2,1.2c0.4,0,0.6-0.1,0.7-0.2l0.1-0.1    c0.3-0.3,0.3-0.6,0.2-0.7l0-0.1c0-13.5-7.6-21.9-19.8-21.9H21z M2.5,48.6c-0.4,0-0.7-0.3-0.7-0.7c0-13.2,7.4-21.4,19.4-21.5h8.3    c12,0,19.4,8.2,19.4,21.5c0,0.1,0,0.3-0.1,0.4c-0.1,0.2-0.4,0.2-0.6,0.2c-0.4-0.1-0.6-0.4-0.6-0.7c0-9.6-4.7-19.9-18-19.9h-8.3    c-13.2,0-17.9,10.3-17.9,20C3.2,48.2,2.9,48.6,2.5,48.6z M21.1,26.8C9.5,26.9,2.2,35,2.2,47.8c0,0.2,0.1,0.2,0.2,0.2    c0.1,0,0.2-0.2,0.2-0.2c0-9.9,4.8-20.5,18.4-20.5h8.3C43.1,27.3,48,37.9,48,47.7c0,0,0,0.1,0.1,0.2c0.1,0.1,0.2,0.1,0.2,0.1l0,0    c0,0,0,0,0-0.1c0-13-7.2-21-18.9-21H21.1z"></path>		</g>	</g></g></svg>