<svg xmlns="http://www.w3.org/2000/svg" x="0px" y="0px" viewBox="0 0 50 50" style="enable-background:new 0 0 50 50;" xml:space="preserve"><path d="M35.9,8.4c-4.1,0-7.3,3.1-10.2,7c-4-5.1-7.3-7-11.3-7C6.2,8.4,0,19,0,30.2c0,7,3.4,11.4,9.1,11.4c4.1,0,7-1.9,12.3-11.1 c0,0,2.2-3.8,3.7-6.5c0.5,0.8,1.1,1.8,1.7,2.7l2.5,4.1c4.8,8,7.4,10.7,12.3,10.7c5.5,0,8.6-4.5,8.6-11.6C50,18.2,43.6,8.4,35.9,8.4z  M17.3,28.1c-4.2,6.6-5.7,8.1-8.1,8.1c-2.4,0-3.9-2.1-3.9-5.9c0-8.1,4.1-16.5,8.9-16.5c2.6,0,4.8,1.5,8.2,6.3 C19.3,25,17.3,28.1,17.3,28.1z M33.3,27.2l-2.9-4.9c-0.8-1.3-1.6-2.5-2.3-3.6c2.6-4.1,4.8-6.1,7.4-6.1c5.4,0,9.7,7.9,9.7,17.7 c0,3.7-1.2,5.9-3.7,5.9C39.1,36.2,37.9,34.6,33.3,27.2z"></path></svg>