<svg xmlns="http://www.w3.org/2000/svg" xmlns:xlink="http://www.w3.org/1999/xlink" x="0px" y="0px" viewBox="0 0 70 20" style="enable-background:new 0 0 70 20;" xml:space="preserve"><style type="text/css">	.wdt-glidex{fill:url(#glidex-logo);}</style><linearGradient id="glidex-logo" gradientUnits="userSpaceOnUse" x1="67.9807" y1="15.7632" x2="64.8659" y2="13.6843" gradientTransform="matrix(1 0 0 -1 0 21)">	<stop offset="0" style="stop-color:#884EAA"></stop>	<stop offset="1" style="stop-color:#6B4ACA"></stop></linearGradient><path class="wdt-glidex" d="M69,4.4h-2.5l-2,2.6l1.2,1.6L69,4.4z"></path><g>	<path d="M29.6,4.4h-2v11.6h2V4.4z"></path>	<path d="M43.2,5.6c-1.2-0.9-2.7-1.2-4.9-1.2h-5.9l3,2h2.9c0.9,0,1.5,0,2.4,0.3c0.4,0.1,0.8,0.3,1.1,0.6c0.7,0.6,1.1,1.7,1.1,2.9  c-0.1,1.9-0.8,3.1-2.2,3.5c-0.8,0.3-1.4,0.3-2.4,0.3h-3.8V8.2l-2-1.2v8.9h5.9c2.1,0,3.6-0.4,4.9-1.2c1.3-0.8,1.9-2.4,1.9-4.6  S44.5,6.4,43.2,5.6L43.2,5.6z"></path>	<path d="M48.6,6.3h4.1h2.5l1.1-2h-9.8v2H48.6z"></path>	<path d="M48.6,14v-3h6.3V9h-2.2h-4.1h-2.1v6.9h9.8l-1.2-2H48.6z"></path>	<path d="M13,5.1C11.8,4.4,10.2,4,8.3,4C6,4,4.2,4.6,2.9,5.7C2.8,5.9,2.7,6,2.5,6.1l1.2,2c0.2-0.4,0.5-0.7,0.9-1  C5.4,6.3,6.8,6,8.4,6c1.2,0,2.4,0.2,3.6,0.7L13,5.1L13,5.1z"></path>	<path d="M7.2,9l1.1,2h3.7v2.4C10.9,13.8,9.7,14,8.5,14c-1.8,0-3.1-0.4-3.9-1.1C4.3,12.6,4,12.3,3.8,12l0,0c0,0,0,0,0-0.1L1.4,7.9  C1.1,8.5,1,9.2,1,10c0,1.8,0.6,3.2,1.9,4.3C4.2,15.4,6.1,16,8.3,16c3.2,0,5.7-1.6,5.7-1.6V9H7.2z"></path>	<path d="M24.4,14h-6.1V4.4h-2v11.6h9.2L24.4,14z"></path>	<path d="M64.6,10.2l-1.2-1.6l-3.2-4.2h-2.5l4.4,5.8l-4.4,5.8h2.5l3.2-4.1l3.2,4.1H69L64.6,10.2z"></path></g></svg>