<svg xmlns="http://www.w3.org/2000/svg" x="0px" y="0px" viewBox="0 0 50 50" style="enable-background:new 0 0 50 50;" xml:space="preserve"><path class="wdt-custom-menu-icon-class-1" d="M49,25c0-1.6-1.5-3-3.2-3H4.2C2.5,22,1,23.4,1,25s1.5,3,3.2,3h41.5C47.5,28,49,26.6,49,25z"></path><path class="wdt-custom-menu-icon-class-2" d="M49,3.5c0-1.6-1.5-3-3.2-3h-5.2c-1.8,0-3.2,1.3-3.2,3s1.5,3,3.2,3h5.2C47.5,6.5,49,5.1,49,3.5z"></path><path class="wdt-custom-menu-icon-class-3" d="M30.8,3.5c0-1.6-1.5-3-3.2-3H4.2C2.5,0.5,1,1.8,1,3.5s1.5,3,3.2,3h23.4C29.4,6.5,30.8,5.1,30.8,3.5z"></path><path class="wdt-custom-menu-icon-class-4" d="M12.7,46.5c0-1.7-1.5-3-3.2-3H4.2c-1.8,0-3.2,1.3-3.2,3c0,1.7,1.5,3,3.2,3h5.2C11.2,49.5,12.7,48.2,12.7,46.5z"></path><path class="wdt-custom-menu-icon-class-5" d="M49,46.5c0-1.7-1.5-3-3.2-3H22.4c-1.8,0-3.2,1.3-3.2,3c0,1.7,1.5,3,3.2,3h23.4C47.5,49.5,49,48.2,49,46.5z"></path></svg>