<svg xmlns="http://www.w3.org/2000/svg" xmlns:xlink="http://www.w3.org/1999/xlink" x="0px" y="0px" viewBox="0 0 100 90" style="enable-background:new 0 0 100 90;" xml:space="preserve"><path d="M88.2,46.4c6.2,0,9.3,3.3,9.3,9.9V74c0,6.6-3.1,9.9-9.3,9.9H67.5c-6.2,0-9.3-3.3-9.3-9.9V56.3c0-11.4,0.8-20.9,2.3-28.6 c1.5-7.8,5.4-14,11.5-18.8c4.5-3.4,8-3.8,10.6-1.1l5,5.4c3.2,3.4,2.7,6.7-1.5,9.9c-2.8,2.2-4.7,5.1-5.7,8.6c-1,3.5-1.5,8.4-1.5,14.6 H88.2z M32.5,46.4c6.2,0,9.3,3.3,9.3,9.9V74c0,6.6-3.1,9.9-9.3,9.9H11.8c-6.2,0-9.3-3.3-9.3-9.9V56.3c0-11.4,0.8-20.9,2.3-28.6 c1.5-7.8,5.4-14,11.5-18.8c4.5-3.4,8-3.8,10.6-1.1l5,5.4c3.2,3.4,2.7,6.7-1.5,9.9c-2.8,2.2-4.7,5.1-5.7,8.6c-1,3.5-1.5,8.4-1.5,14.6 H32.5z"></path></svg>